<svg width="16" height="16" viewBox="0 0 16 16" fill="none" xmlns="http://www.w3.org/2000/svg">
<path d="M8 8.66675C9.10457 8.66675 10 7.77132 10 6.66675C10 5.56218 9.10457 4.66675 8 4.66675C6.89543 4.66675 6 5.56218 6 6.66675C6 7.77132 6.89543 8.66675 8 8.66675Z" stroke="white" stroke-width="2" stroke-linecap="round" stroke-linejoin="round"/>
<path d="M7.99996 1.33337C6.58547 1.33337 5.22892 1.89528 4.22872 2.89547C3.22853 3.89567 2.66663 5.25222 2.66663 6.66671C2.66663 7.92804 2.93463 8.75337 3.66663 9.66671L7.99996 14.6667L12.3333 9.66671C13.0653 8.75337 13.3333 7.92804 13.3333 6.66671C13.3333 5.25222 12.7714 3.89567 11.7712 2.89547C10.771 1.89528 9.41445 1.33337 7.99996 1.33337V1.33337Z" stroke="white" stroke-width="2" stroke-linecap="round" stroke-linejoin="round"/>
</svg>
