<svg width="16" height="16" viewBox="0 0 16 16" fill="none" xmlns="http://www.w3.org/2000/svg">
<path d="M11.8046 8.19529C11.7428 8.13329 11.6693 8.08416 11.5884 8.05062C11.5075 8.01709 11.4208 7.99982 11.3333 7.99982C11.2457 7.99982 11.159 8.01709 11.0782 8.05062C10.9973 8.08416 10.9238 8.13329 10.862 8.19529L9.79929 9.25796C9.30662 9.11129 8.38729 8.77796 7.80462 8.19529C7.22196 7.61262 6.88862 6.69329 6.74196 6.2006L7.80462 5.13793C7.86656 5.07607 7.91576 5.0026 7.94929 4.92172C7.98282 4.84085 8.00009 4.75415 8.00009 4.6666C8.00009 4.57904 7.98282 4.49234 7.94929 4.41146C7.91576 4.33059 7.86656 4.25712 7.80462 4.19526L5.13794 1.5286C5.07608 1.46663 5.00261 1.41747 4.92173 1.38393C4.84086 1.35039 4.75416 1.33313 4.6666 1.33313C4.57904 1.33313 4.49235 1.35039 4.41147 1.38393C4.3306 1.41747 4.25713 1.46663 4.19527 1.5286L2.38727 3.3366C2.13394 3.58993 1.99127 3.93793 1.9966 4.29326C2.01194 5.2426 2.26327 8.53996 4.86194 11.1386C7.46062 13.7373 10.758 13.988 11.708 14.004H11.7266C12.0786 14.004 12.4113 13.8653 12.6633 13.6133L14.4713 11.8053C14.5332 11.7434 14.5824 11.67 14.616 11.5891C14.6495 11.5082 14.6668 11.4215 14.6668 11.334C14.6668 11.2464 14.6495 11.1597 14.616 11.0788C14.5824 10.9979 14.5332 10.9244 14.4713 10.8626L11.8046 8.19529ZM11.72 12.67C10.888 12.656 8.04129 12.4326 5.8046 10.1953C3.5606 7.95129 3.34327 5.0946 3.32994 4.27926L4.6666 2.9426L6.3906 4.6666L5.5286 5.5286C5.45024 5.6069 5.39263 5.70348 5.36097 5.80964C5.32931 5.9158 5.3246 6.02816 5.34727 6.1366C5.36327 6.21326 5.7546 8.03129 6.86129 9.13796C7.96796 10.2446 9.78596 10.636 9.86262 10.652C9.97096 10.6752 10.0834 10.6709 10.1897 10.6394C10.296 10.6078 10.3926 10.55 10.4706 10.4713L11.3333 9.60929L13.0573 11.3333L11.72 12.67Z" fill="white"/>
</svg>
